<svg xmlns="http://www.w3.org/2000/svg" viewBox="0 0 357.68 91.82"><title id="title">Northland Obstetrics and Gynecology logo</title><defs><style>.teal{fill:#67c6b6}</style></defs><path id="Teal" d="M43.68 0L43 34.63l.47 15.91H29.72L11.86 19.42h-.78L11 32.84l.47 17.7H0l.62-14.82L0 .23h13.65l17.94 31.13h.78L32.06.7zm90.56 25.08h-.47v-6l-10.12.81.47 17.89-.54 12.79h10.59l-.47-13.87v-4q3-3.88 6.63-3.88a5.6 5.6 0 0 1 2.48.46l1.08-.33v-9.7c-.81-.08-1.34-.13-1.61-.13q-4.89 0-8.04 5.96zm37.45.67l.47-5.69-.34-.6h-7.37l.27-7.58-.73-.67-9.72 2.89v5.36h-4l-.47 5.76.33.53h4.16L154.4 36l-.33 6.1a8.11 8.11 0 0 0 2.55 6.33q2.53 2.31 7.43 2.58a19.17 19.17 0 0 0 7-2.34l1-6.1-.74-.8a10.66 10.66 0 0 1-4.29 1 3.16 3.16 0 0 1-2.44-.77 4 4 0 0 1-.71-2.71l.4-13.54zm39.23 1.95a8 8 0 0 0-2.51-6.6q-2.66-2.31-7.74-2.31a21.06 21.06 0 0 0-8 4.89h-.4l.34-20.17-10.52.74.4 33.43-.49 12.86h10.59l-.47-13.87.14-7.43a9.24 9.24 0 0 1 5.09-2q3.75 0 3.75 4.62l-.6 18.69h10.65l-.4-13.87zm12.83-23.45l.4 33.43-.54 12.86h10.59l-.47-13.87.54-33.16zM274 43.17l.73.61-.93 5.56a10.93 10.93 0 0 1-5.43 1.81 6.12 6.12 0 0 1-3.37-1.41 6.61 6.61 0 0 1-2-3.42h-.47a18.87 18.87 0 0 1-6.83 4.89 11.29 11.29 0 0 1-7.81-2.68 9.18 9.18 0 0 1-2.84-7.1q0-6.9 7.23-8.1l9.92-1.68v-1.94a4.06 4.06 0 0 0-.91-3 4 4 0 0 0-2.91-.91 12.3 12.3 0 0 0-4.32.87 31.37 31.37 0 0 0-5.33 2.75L248 29l-1.2-6.9a28.25 28.25 0 0 1 6.49-2.61 26.07 26.07 0 0 1 6.84-.94q5.56 0 8.64 2.38a8.05 8.05 0 0 1 3.08 6.8c0 1 0 2.21-.13 3.55s-.16 2.61-.2 3.82q-.34 4.82-.34 6.63a2.2 2.2 0 0 0 .31 1.34 1.19 1.19 0 0 0 1 .4 5.12 5.12 0 0 0 1.51-.3zm-11.86-6.56l-5.76 1.14a2.51 2.51 0 0 0-1.51.8 2.75 2.75 0 0 0-.5 1.81 3.47 3.47 0 0 0 .83 2.48 3.07 3.07 0 0 0 2.32.87q2.13 0 4.55-2.28zm52-8.91a8.14 8.14 0 0 0-2.58-6.6q-2.65-2.31-7.68-2.31a21.63 21.63 0 0 0-8 4.89h-.4v-4.63l-10.11.81.4 17.89-.47 12.79h10.5l-.46-13.87v-7.43a8.81 8.81 0 0 1 5.09-2q3.88 0 3.75 4.62l-.54 18.69h10.59l-.4-13.87zm43.58 16.08l-.94 5.56a10.86 10.86 0 0 1-5.43 1.81 6.48 6.48 0 0 1-5.83-4.69H345a24.77 24.77 0 0 1-6.5 4.62q-6.49 0-10.12-4.22t-3.67-11.66q0-8 4.26-12.29t11.76-4.26a17 17 0 0 1 3.55.34l-.14-14.74 10.52-.74-.53 33.16.13 5a2.68 2.68 0 0 0 .27 1.41 1 1 0 0 0 .94.4 5.12 5.12 0 0 0 1.47-.27zm-13.13-6.1l-.14-10.92a10.07 10.07 0 0 0-4.15-1 5.13 5.13 0 0 0-4.3 1.7q-1.41 1.71-1.41 5.66 0 5.1 1.34 7.51A4.32 4.32 0 0 0 340 43a6.29 6.29 0 0 0 4.49-2.21z" class="teal"/><path id="Black" d="M35 66.12a8 8 0 0 0-5.23 2.1 13.37 13.37 0 0 0-2.13 2.29A18.1 18.1 0 0 0 26 73.33a17 17 0 0 0-1.11 3.12 14 14 0 0 0-.46 3.08 5.89 5.89 0 0 0 1.26 4.24 4.49 4.49 0 0 0 3.53 1.45 7.68 7.68 0 0 0 5-2.1 13.42 13.42 0 0 0 2.15-2.28A17.8 17.8 0 0 0 38.05 78a17.41 17.41 0 0 0 1.17-3.11 13.15 13.15 0 0 0 .47-3.17 7.31 7.31 0 0 0-.32-2.62A4.14 4.14 0 0 0 35 66.12zm.71 10.29a22.45 22.45 0 0 1-1.39 2.72 16.32 16.32 0 0 1-1.66 2.31A8.78 8.78 0 0 1 30.9 83a3.47 3.47 0 0 1-1.85.59 1.77 1.77 0 0 1-1.51-.83 3.08 3.08 0 0 1-.43-1 6 6 0 0 1-.12-1.6 11.89 11.89 0 0 1 .41-2.51 19.17 19.17 0 0 1 1-2.9 17.89 17.89 0 0 1 3.1-5q1.92-2.13 3.48-2.13a1.93 1.93 0 0 1 2 1.86c.34 1.92-.08 4.19-1.23 6.93zm12.69-4a4.17 4.17 0 0 0-2.79 1.19 12.23 12.23 0 0 0-1.74 2.26l.7-1.82c.27-.72.67-1.88 1.22-3.49q.3-.94.54-1.8c.16-.57.29-1.09.39-1.58a7.46 7.46 0 0 0 .17-1.32 1.49 1.49 0 0 0-1.49-1.38c-.58 0-.91.34-1 1a54 54 0 0 1-2 7.94L41 77.65c-.14.44-.26.88-.37 1.32s-.2.88-.27 1.31a8.41 8.41 0 0 0-.1 1.35 3.65 3.65 0 0 0 .94 2.57 3.46 3.46 0 0 0 2.65 1 6.36 6.36 0 0 0 3.45-1.15 9.39 9.39 0 0 0 1.61-1.33A9.28 9.28 0 0 0 50.27 81a9.39 9.39 0 0 0 .91-2.1 7.73 7.73 0 0 0 .34-2.28 6.88 6.88 0 0 0-.23-1.91 2.83 2.83 0 0 0-2.85-2.25zm0 5.68a7.92 7.92 0 0 1-2.4 4.52 3.62 3.62 0 0 1-2.34 1c-.81 0-1.22-.45-1.22-1.37a7.74 7.74 0 0 1 1-3.34 16 16 0 0 1 1-1.73 13.14 13.14 0 0 1 1.13-1.47 7.29 7.29 0 0 1 1.1-1 1.72 1.72 0 0 1 1-.39.75.75 0 0 1 .71.41 3.16 3.16 0 0 1 .23 1.45 9.85 9.85 0 0 1-.14 1.97zm13.74-4.78A2.13 2.13 0 0 1 63 75a1.84 1.84 0 0 1-.73 1.54 1.59 1.59 0 0 1-1.32.38.66.66 0 0 1-.45-.3.57.57 0 0 1-.06-.54 2.3 2.3 0 0 0 .09-.64 1.54 1.54 0 0 0-.12-.61 1.43 1.43 0 0 0-.33-.47 1.29 1.29 0 0 0-.89-.41 2.39 2.39 0 0 0-.78.11 1.78 1.78 0 0 0-.54.3 1.42 1.42 0 0 0-.47 1.08 2.51 2.51 0 0 0 .22 1.1 6.38 6.38 0 0 0 .54.93c.22.31.45.62.7.94a10 10 0 0 1 .7 1 4.26 4.26 0 0 1 .77 2.17 2.91 2.91 0 0 1-.33 1.56 3.74 3.74 0 0 1-1 1.08 4.85 4.85 0 0 1-3 1 3.81 3.81 0 0 1-2.5-.76 1.9 1.9 0 0 1-.75-1.5 1.5 1.5 0 0 1 .16-.7 1.75 1.75 0 0 1 .41-.54 1.56 1.56 0 0 1 1.08-.48c.32 0 .48.17.48.5a1.87 1.87 0 0 0 .85 1.77 1.21 1.21 0 0 0 .63.18 1.82 1.82 0 0 0 .56-.07 1.37 1.37 0 0 0 .43-.23 1.07 1.07 0 0 0 .44-.84 1.82 1.82 0 0 0-.22-.9 8.11 8.11 0 0 0-.55-.86l-.7-1a6.2 6.2 0 0 1-1.46-3.6A3.38 3.38 0 0 1 56 73.72a4.7 4.7 0 0 1 3.38-1.26 4.12 4.12 0 0 1 2.83.9zm16.92-.9a5.88 5.88 0 0 0-3.53 1.31 9.94 9.94 0 0 0-1.49 1.42 11.07 11.07 0 0 0-1.2 1.72 9.41 9.41 0 0 0-.82 1.88 8.08 8.08 0 0 0-.36 2 4.28 4.28 0 0 0 1.15 3.32 3.94 3.94 0 0 0 2.88 1.07 6.2 6.2 0 0 0 4.58-1.54 1.8 1.8 0 0 0 .37-1.12 1.07 1.07 0 0 0-.17-.59.45.45 0 0 0-.38-.26.79.79 0 0 0-.52.29 3.59 3.59 0 0 1-.78.58 5.1 5.1 0 0 1-2.76.83 1.4 1.4 0 0 1-1.27-.73 2.49 2.49 0 0 1-.29-.75 3 3 0 0 1-.07-.76 2.53 2.53 0 0 1 .06-.51 11.55 11.55 0 0 0 3.78-.57 8.62 8.62 0 0 0 1.56-.74 6.46 6.46 0 0 0 1.23-1 4.1 4.1 0 0 0 .81-1.23 3.8 3.8 0 0 0 .31-1.48 3.44 3.44 0 0 0-.24-1.38 2.71 2.71 0 0 0-2.78-1.71zm-.8 5.36a5.91 5.91 0 0 1-3.54 1.61 12.82 12.82 0 0 1 1.61-3.58c.79-1.18 1.61-1.76 2.46-1.76.56 0 .84.4.84 1.21a3.69 3.69 0 0 1-1.3 2.57zm12.53 4.56a1.43 1.43 0 0 1-.24.78 3.41 3.41 0 0 1-1.25 1.39 4.15 4.15 0 0 1-2.26.72 2.34 2.34 0 0 1-2.49-1.76q-.61-2.08 1.87-8.85c-.94-.08-1.45-.24-1.53-.49a.85.85 0 0 1 0-.23.51.51 0 0 1 .11-.3 1.55 1.55 0 0 1 .3-.33 1.35 1.35 0 0 1 .87-.36h1A12 12 0 0 1 89 69.39a1 1 0 0 1 .6-.2 1.47 1.47 0 0 1 .55.09 1.21 1.21 0 0 1 .78 1.06 1.34 1.34 0 0 1-.15.56l-.9 2h2.79c.23 0 .35.09.35.26 0 1.07-1.27 1.61-3.81 1.61h-.1l-.83 2.15a18.76 18.76 0 0 0-1.4 5.33 1 1 0 0 0 .19.67 1 1 0 0 0 .74.23 2.54 2.54 0 0 0 1-.18 4 4 0 0 0 .77-.41c.22-.15.41-.28.57-.41a.72.72 0 0 1 .41-.18c.18-.07.3.09.3.41zm11.59-7a1.16 1.16 0 0 1-1 .69.46.46 0 0 1-.29-.11l-.27-.24a1.23 1.23 0 0 0-.78-.35 1.45 1.45 0 0 0-.9.49 9.16 9.16 0 0 0-1.11 1.26A23.34 23.34 0 0 0 95 82.83l-.54 1.41a4.14 4.14 0 0 1-.37.76.52.52 0 0 1-.47.22 1.75 1.75 0 0 1-.62-.12 2.12 2.12 0 0 1-.56-.29 1.87 1.87 0 0 1-.44-.41.84.84 0 0 1-.15-.39 1.1 1.1 0 0 1 .06-.41l.22-.58q2.49-6.12 2.49-8.22a1 1 0 0 0-.41-.83l-.21-.18a.38.38 0 0 1-.12-.29.61.61 0 0 1 .16-.41 1.27 1.27 0 0 1 .41-.34 2.24 2.24 0 0 1 1.08-.29 2.28 2.28 0 0 1 .87.13 1.69 1.69 0 0 1 .53.33 1.31 1.31 0 0 1 .47.92 4.17 4.17 0 0 1-.11 1c-.08.34-.17.66-.28 1s-.21.62-.31.91a5 5 0 0 0-.21.64 1.46 1.46 0 0 0-.07.54 1.07 1.07 0 0 0 .35-.5l.48-.91a10.11 10.11 0 0 1 3.1-3.78 2 2 0 0 1 1.05-.26 1.27 1.27 0 0 1 1 .44 1.51 1.51 0 0 1 .39 1 2.83 2.83 0 0 1-.07.87 2.48 2.48 0 0 1-.27.59zm5.57-2a6.79 6.79 0 0 1-.57 2.51c-.38.94-.71 1.7-1 2.28l-.73 1.68a8.06 8.06 0 0 0-.8 2.68.47.47 0 0 0 .53.53 1.87 1.87 0 0 0 .8-.13 1 1 0 0 1 .39-.13c.21 0 .32.13.32.41a1.76 1.76 0 0 1-.51 1.14 2.43 2.43 0 0 1-2 .85 1.93 1.93 0 0 1-1.94-1.15 2.21 2.21 0 0 1-.2-1 4.83 4.83 0 0 1 .2-1.28c.14-.47.31-1 .51-1.48s.41-1 .65-1.56l.65-1.54a8.05 8.05 0 0 0 .7-2.27 1.63 1.63 0 0 0-.11-.73.94.94 0 0 0-.25-.27l-.25-.18a.32.32 0 0 1-.12-.29.62.62 0 0 1 .17-.41 1.25 1.25 0 0 1 .43-.34 2.72 2.72 0 0 1 1.28-.29c1.33.1 1.9.42 1.9 1.04zm1.81-5.33a2.46 2.46 0 0 1-.17 1 2.2 2.2 0 0 1-.43.67 2.13 2.13 0 0 1-1.33.69 1.32 1.32 0 0 1-.71-.12 1.71 1.71 0 0 1-.58-.45 1.91 1.91 0 0 1-.53-1.23 1.8 1.8 0 0 1 .2-.94 1.77 1.77 0 0 1 .51-.51 2.06 2.06 0 0 1 1.1-.37 3.41 3.41 0 0 1 .81.07 1.7 1.7 0 0 1 .53.24 1.18 1.18 0 0 1 .6.95zm10.29 6.09a3 3 0 0 1 .24 1.3 4.25 4.25 0 0 1-.24 1.33 4.56 4.56 0 0 1-.55 1.08q-.75 1.08-1.5 1.08a1.58 1.58 0 0 1-1.25-.47 1 1 0 0 1-.22-.94.52.52 0 0 1 .22-.28 3.55 3.55 0 0 0 .47-.41 2.88 2.88 0 0 0 .83-1.94c0-.51-.3-.76-.93-.76A3.14 3.14 0 0 0 115 75.2a9.29 9.29 0 0 0-2.31 4.28c-.39 1.52-.31 2.62.22 3.32a1.55 1.55 0 0 0 1.3.61 4.34 4.34 0 0 0 2.66-1 3.71 3.71 0 0 0 .63-.62c.17-.22.32-.32.45-.32a.4.4 0 0 1 .35.2.84.84 0 0 1 .14.52 2.06 2.06 0 0 1-.64 1.41 5.58 5.58 0 0 1-4 1.59 4 4 0 0 1-3.07-1.14 4.26 4.26 0 0 1-1-3.19 8.16 8.16 0 0 1 .34-2.12 10 10 0 0 1 .83-2 9.53 9.53 0 0 1 1.17-1.74 9.12 9.12 0 0 1 1.56-1.37 6.45 6.45 0 0 1 3.7-1.21 2.72 2.72 0 0 1 2.72 1.64zm10.19-.7a2.13 2.13 0 0 1 .83 1.64 1.84 1.84 0 0 1-.73 1.54 1.59 1.59 0 0 1-1.32.38.68.68 0 0 1-.45-.3.57.57 0 0 1-.06-.54 2.31 2.31 0 0 0 .1-.64 1.55 1.55 0 0 0-.13-.61 1.43 1.43 0 0 0-.33-.47 1.29 1.29 0 0 0-.89-.41 2.44 2.44 0 0 0-.78.11 1.78 1.78 0 0 0-.54.3 1.42 1.42 0 0 0-.47 1.08 2.51 2.51 0 0 0 .22 1.1 6.38 6.38 0 0 0 .54.93c.22.31.45.62.7.94a8.55 8.55 0 0 1 .7 1 4.26 4.26 0 0 1 .77 2.17 2.91 2.91 0 0 1-.39 1.56 3.74 3.74 0 0 1-1 1.08 4.85 4.85 0 0 1-3 1 3.76 3.76 0 0 1-2.49-.76 1.88 1.88 0 0 1-.76-1.5 1.5 1.5 0 0 1 .16-.7 1.75 1.75 0 0 1 .41-.54 1.56 1.56 0 0 1 1.08-.48.44.44 0 0 1 .49.5 1.88 1.88 0 0 0 .84 1.77 1.21 1.21 0 0 0 .63.18 1.82 1.82 0 0 0 .56-.07 1.37 1.37 0 0 0 .43-.23 1.07 1.07 0 0 0 .44-.84 1.82 1.82 0 0 0-.22-.9 8.11 8.11 0 0 0-.55-.86l-.69-1a6.15 6.15 0 0 1-1.47-3.6 3.38 3.38 0 0 1 1.13-2.5 4.7 4.7 0 0 1 3.38-1.26 4.08 4.08 0 0 1 2.86.9zm20.37-3.44a1.55 1.55 0 0 0 .27-.85c0-.85-.57-1.27-1.72-1.27a5.11 5.11 0 0 0-3.74 1.89 6.59 6.59 0 0 0-1.42 2.41 3.51 3.51 0 0 0-.22 1.15 2.8 2.8 0 0 0 .11.84 1.79 1.79 0 0 0 .3.53.86.86 0 0 0 .81.35 2.9 2.9 0 0 1 1.06-.24 2.08 2.08 0 0 1 .73.11 1.72 1.72 0 0 1 .46.29 1 1 0 0 1 .34.66c0 .41-.14.63-.42.65a3.9 3.9 0 0 0-1.26.35 7.2 7.2 0 0 0-1.42.81 6.85 6.85 0 0 0-1.22 1.12 4.26 4.26 0 0 0-1.22 2.83 1.93 1.93 0 0 0 1.18 2 2.48 2.48 0 0 0 1 .17 2.57 2.57 0 0 0 1.11-.25 3.57 3.57 0 0 0 .95-.63 2.51 2.51 0 0 0 .89-1.74 1.31 1.31 0 0 0-1-1.46 1.46 1.46 0 0 1-.41-.16.24.24 0 0 1-.09-.3 1 1 0 0 1 .28-.41 1.5 1.5 0 0 1 1.13-.57 4 4 0 0 1 .85.13 8.31 8.31 0 0 0 1.52.23 7.24 7.24 0 0 0 1.58-.14l.95-.24c.43-.12.65 0 .65.31a1.58 1.58 0 0 1-.27.89 2.6 2.6 0 0 1-.72.72 4.09 4.09 0 0 1-2.4.62 1.47 1.47 0 0 1 0 .36 2.71 2.71 0 0 1-.45 1.42 5.11 5.11 0 0 1-1.22 1.34 6.33 6.33 0 0 1-4 1.37A4.39 4.39 0 0 1 140.3 84a3.32 3.32 0 0 1-.92-2.32 6.31 6.31 0 0 1 2.2-4.73A4.47 4.47 0 0 1 143 76a3 3 0 0 1-1.74-2.14 4.71 4.71 0 0 1-.14-1.2 4.65 4.65 0 0 1 .27-1.48 6.46 6.46 0 0 1 .77-1.53 7.58 7.58 0 0 1 1.18-1.38 8 8 0 0 1 1.53-1.1 7.9 7.9 0 0 1 3.87-1 4 4 0 0 1 3.14 1.23 3.46 3.46 0 0 1 .89 2.4 4.52 4.52 0 0 1-1.26 3 3.28 3.28 0 0 1-2.34 1.44 1.53 1.53 0 0 1-1.15-.53 1.37 1.37 0 0 1-.46-.87.53.53 0 0 1 .2-.49 7.49 7.49 0 0 0 2.85-2.43zm22.61.21a2.71 2.71 0 0 0 .27-1.14c0-.79-.38-1.19-1.13-1.19a5.27 5.27 0 0 0-3.68 2 16.2 16.2 0 0 0-3 4.68 14.51 14.51 0 0 0-1.31 5.31c-.09 1.72.32 2.87 1.22 3.46a2.06 2.06 0 0 0 1.14.3 2.7 2.7 0 0 0 1.3-.33 3.8 3.8 0 0 0 1.07-.83 3.56 3.56 0 0 0 1-2.28 1.23 1.23 0 0 0-.64-1.23 2.66 2.66 0 0 0-.58-.21 2.51 2.51 0 0 1-.51-.18c-.13-.07-.17-.2-.1-.39a1.65 1.65 0 0 1 .36-.59 2.09 2.09 0 0 1 1.55-.78 4.53 4.53 0 0 1 .85.12 7.62 7.62 0 0 0 1.41.23 4.63 4.63 0 0 0 .58 0l.44-.06c.33-.08.64-.17.94-.27.48-.16.72-.06.72.32a2.43 2.43 0 0 1-.24 1.07 2.55 2.55 0 0 1-.63.86 3 3 0 0 1-2.15.75 3.36 3.36 0 0 1-.56 2 6.5 6.5 0 0 1-3.54 3.14 5.34 5.34 0 0 1-1.84.3 4.76 4.76 0 0 1-1.87-.36 4.12 4.12 0 0 1-1.47-1 5.62 5.62 0 0 1-1.26-3.86v-.36a15.77 15.77 0 0 1 1.86-6.9 14.12 14.12 0 0 1 4-4.8 7.66 7.66 0 0 1 4.61-1.8 3.29 3.29 0 0 1 2.69 1.18 3.79 3.79 0 0 1 .85 2.52 5.79 5.79 0 0 1-1.3 3.51 4.92 4.92 0 0 1-1.6 1.44 1.62 1.62 0 0 1-.77.22 1.4 1.4 0 0 1-.64-.15 1.83 1.83 0 0 1-.5-.36 1.31 1.31 0 0 1-.46-.86.61.61 0 0 1 .19-.52 8.23 8.23 0 0 0 2.73-2.99zm15.68 3.48c-.13.3-.28.7-.46 1.21q-2.33 6.72-3 8.39c-.46 1.1-.86 2-1.2 2.66a22.22 22.22 0 0 1-1.21 2 15.44 15.44 0 0 1-1.47 1.86 5.57 5.57 0 0 1-3.34 2 1.52 1.52 0 0 1-1-.17c-.41-.24-.61-.47-.61-.69s.18-.38.55-.46a4 4 0 0 0 1.15-.51 9.36 9.36 0 0 0 1.14-.9 11.91 11.91 0 0 0 2.5-3.35 24.29 24.29 0 0 0 1.22-3l1-2.9c-.24.28-.5.61-.79 1l-.87 1.22a13.54 13.54 0 0 1-1.91 2.06 4.35 4.35 0 0 1-2.6 1.16 2 2 0 0 1-2-1.3 2.67 2.67 0 0 1-.15-.93 4.38 4.38 0 0 1 .18-1.16 12.43 12.43 0 0 1 .46-1.33c.19-.47.39-.94.61-1.43l.66-1.47c.85-1.88 1.16-3 .94-3.34a1.57 1.57 0 0 0-.55-.47.3.3 0 0 1-.15-.29.59.59 0 0 1 .18-.41 1.49 1.49 0 0 1 .46-.34 2.78 2.78 0 0 1 1.19-.29 2.58 2.58 0 0 1 .91.13 1.61 1.61 0 0 1 .51.33 1.2 1.2 0 0 1 .4.89 4.16 4.16 0 0 1-.16 1.09 13.66 13.66 0 0 1-.41 1.31c-.17.47-.36 1-.56 1.47q-.84 2-1.14 2.61l-.45.94a3.63 3.63 0 0 0-.38 1.18.86.86 0 0 0 .11.49.51.51 0 0 0 .4.14 1.26 1.26 0 0 0 .63-.22 5.19 5.19 0 0 0 .75-.59 11.32 11.32 0 0 0 .84-.85c.29-.32.57-.66.85-1a16.27 16.27 0 0 0 1.61-2.3q2.64-4.86 2.8-5.08a1.07 1.07 0 0 1 .81-.53 2.48 2.48 0 0 1 .71.1 1.54 1.54 0 0 1 .53.26.63.63 0 0 1 .31.78zm11.23 6.09a8.45 8.45 0 0 0-.91 3c0 .28.22.41.66.41a1.93 1.93 0 0 0 .93-.22 1.76 1.76 0 0 1 .54-.21c.17 0 .26.08.26.25a2.14 2.14 0 0 1-1.11 1.82 2.54 2.54 0 0 1-1.37.5 3.35 3.35 0 0 1-1-.13 2.07 2.07 0 0 1-.73-.43 2.3 2.3 0 0 1-.72-1.81 9.69 9.69 0 0 1 .89-3.54c.44-1 .74-1.63.92-2l.41-.86a3 3 0 0 0 .38-1.24c0-.3-.22-.45-.67-.45-.25 0-.61.24-1.07.73s-.87.92-1.21 1.32l-1 1.25-2 2.55c-.47.89-.84 1.64-1.11 2.23l-.66 1.42a3.25 3.25 0 0 1-.56.68.64.64 0 0 1-.51.21 1.67 1.67 0 0 1-.62-.12 1.75 1.75 0 0 1-.52-.29 1.13 1.13 0 0 1-.46-.86 2.32 2.32 0 0 1 .26-.72l.47-1c.14-.29.32-.66.51-1.12l.68-1.67a17.7 17.7 0 0 0 1.45-4.65 1 1 0 0 0-.37-.83l-.25-.18a.32.32 0 0 1-.12-.29.62.62 0 0 1 .17-.41 1.35 1.35 0 0 1 .43-.34 2.42 2.42 0 0 1 1.11-.29 2.22 2.22 0 0 1 .86.13 1.5 1.5 0 0 1 .51.33 1.22 1.22 0 0 1 .45.89 3.71 3.71 0 0 1-.12.93 7.33 7.33 0 0 1-.29 1c-.12.32-.24.64-.37 1s-.25.58-.35.8l-.25.53c-.06.13-.08.17-.05.12.91-1.25 1.5-2.06 1.78-2.42l.86-1a8.21 8.21 0 0 1 1.48-1.45 3.44 3.44 0 0 1 1.71-.74 3.11 3.11 0 0 1 1 .16 2.2 2.2 0 0 1 .75.46 2 2 0 0 1 .67 1.58 5.31 5.31 0 0 1-.44 2c-.29.7-.55 1.26-.76 1.7s-.34.8-.54 1.24zm11.2-7.24a5.86 5.86 0 0 0-3.53 1.31 9.55 9.55 0 0 0-1.5 1.42 11.07 11.07 0 0 0-1.2 1.72 10.72 10.72 0 0 0-.82 1.88 8.07 8.07 0 0 0-.35 2 4.24 4.24 0 0 0 1.15 3.32 3.93 3.93 0 0 0 2.92 1.08 6.18 6.18 0 0 0 4.57-1.54 1.74 1.74 0 0 0 .37-1.12 1.07 1.07 0 0 0-.16-.59.45.45 0 0 0-.39-.26.79.79 0 0 0-.52.29 3.77 3.77 0 0 1-.77.58 5.15 5.15 0 0 1-2.76.83 1.38 1.38 0 0 1-1.27-.73 2.06 2.06 0 0 1-.29-.75 3 3 0 0 1-.08-.76 2.53 2.53 0 0 1 .06-.51 11.51 11.51 0 0 0 3.71-.64 8 8 0 0 0 1.56-.74 5.89 5.89 0 0 0 1.23-1 4.34 4.34 0 0 0 .82-1.23 4 4 0 0 0 .3-1.48 3.45 3.45 0 0 0-.23-1.38 2.71 2.71 0 0 0-2.82-1.73zm-.81 5.36a5.85 5.85 0 0 1-3.52 1.58 13.12 13.12 0 0 1 1.61-3.58c.79-1.18 1.61-1.76 2.47-1.76.56 0 .84.4.84 1.21a3.67 3.67 0 0 1-1.4 2.52zm15.41-3.76a2.9 2.9 0 0 1 .23 1.3 4.25 4.25 0 0 1-.23 1.33 4.56 4.56 0 0 1-.55 1.08c-.5.72-1 1.08-1.51 1.08a1.56 1.56 0 0 1-1.24-.47 1 1 0 0 1-.22-.94.48.48 0 0 1 .22-.28 3.58 3.58 0 0 0 .46-.41 2.83 2.83 0 0 0 .83-1.94c0-.51-.29-.76-.92-.76a3.12 3.12 0 0 0-2.15 1.15 9.29 9.29 0 0 0-2.31 4.28c-.39 1.52-.32 2.62.22 3.32a1.55 1.55 0 0 0 1.29.61 4.37 4.37 0 0 0 2.67-1 3.71 3.71 0 0 0 .63-.62c.16-.22.31-.32.45-.32a.4.4 0 0 1 .35.2.91.91 0 0 1 .14.52 2.08 2.08 0 0 1-.65 1.41 5.54 5.54 0 0 1-4 1.59 4 4 0 0 1-3.07-1.14 4.26 4.26 0 0 1-1-3.19 8.16 8.16 0 0 1 .34-2.12 9.48 9.48 0 0 1 .83-2A9.07 9.07 0 0 1 218 75a8.7 8.7 0 0 1 1.55-1.37 6.5 6.5 0 0 1 3.7-1.21 2.72 2.72 0 0 1 2.68 1.64zm8.67-1.6a6 6 0 0 0-3.69 1.37 8.46 8.46 0 0 0-1.5 1.49 10.28 10.28 0 0 0-1.16 1.83 9.88 9.88 0 0 0-.74 2 7.81 7.81 0 0 0-.25 2.07 5 5 0 0 0 .3 1.78 3.51 3.51 0 0 0 .81 1.24 3.28 3.28 0 0 0 1.21.72 5.23 5.23 0 0 0 1.6.23 4.86 4.86 0 0 0 1.83-.37 7.53 7.53 0 0 0 3.19-2.47 10 10 0 0 0 1.88-3.84 6.29 6.29 0 0 0-.07-3.87 3.35 3.35 0 0 0-3.41-2.21zm.31 6.75a14.44 14.44 0 0 1-.79 1.74 9.74 9.74 0 0 1-1 1.46 5 5 0 0 1-1.05 1 1.9 1.9 0 0 1-1.11.39.85.85 0 0 1-.81-.49 3 3 0 0 1-.26-1.33 7.81 7.81 0 0 1 .2-1.8 11 11 0 0 1 .58-1.85 12.45 12.45 0 0 1 .84-1.72 10.49 10.49 0 0 1 1-1.43 5.36 5.36 0 0 1 1-1 1.69 1.69 0 0 1 .91-.36 1.19 1.19 0 0 1 .62.14c.37.25.55.82.55 1.71a9.41 9.41 0 0 1-.68 3.51zM247.28 66a9.67 9.67 0 0 1-.24 1.61c-.13.63-.31 1.32-.53 2.06s-.47 1.53-.76 2.36l-1.68 5a23.14 23.14 0 0 0-1.46 5.45q0 .66.54.66a1.93 1.93 0 0 0 .93-.22 1.88 1.88 0 0 1 .55-.21.22.22 0 0 1 .25.25 2.14 2.14 0 0 1-1.11 1.82 2.51 2.51 0 0 1-1.36.5 2.71 2.71 0 0 1-1-.15 1.9 1.9 0 0 1-.69-.46 2.46 2.46 0 0 1-.49-.81 3.12 3.12 0 0 1-.19-1.15 7.07 7.07 0 0 1 .3-1.75c.2-.73.45-1.57.76-2.5l1-3a46.88 46.88 0 0 0 2.52-9.82c.08-.68.41-1 1-1a1.5 1.5 0 0 1 .92.27 1.45 1.45 0 0 1 .74 1.09zm7.21 6.48a6 6 0 0 0-3.7 1.37 8.75 8.75 0 0 0-1.49 1.49 10.28 10.28 0 0 0-1.16 1.83 10.53 10.53 0 0 0-.75 2 8.25 8.25 0 0 0-.25 2.07 5 5 0 0 0 .31 1.78 3.36 3.36 0 0 0 .8 1.24 3.4 3.4 0 0 0 1.22.72 5.23 5.23 0 0 0 1.6.23 4.81 4.81 0 0 0 1.82-.37 7.49 7.49 0 0 0 3.2-2.47 10.12 10.12 0 0 0 1.91-3.83 6.37 6.37 0 0 0-.07-3.87 3.36 3.36 0 0 0-3.44-2.21zm.31 6.75A14.49 14.49 0 0 1 254 81a9.71 9.71 0 0 1-1 1.46 5 5 0 0 1-1.06 1 1.87 1.87 0 0 1-1.1.39.83.83 0 0 1-.81-.49 3 3 0 0 1-.23-1.36 8.4 8.4 0 0 1 .2-1.8 13.23 13.23 0 0 1 .58-1.85 13.75 13.75 0 0 1 .85-1.72 9 9 0 0 1 1-1.43 5.36 5.36 0 0 1 1-1 1.66 1.66 0 0 1 .91-.36 1.19 1.19 0 0 1 .66.16c.36.25.55.82.55 1.71a9.84 9.84 0 0 1-.75 3.5zm17.2-5.8a2 2 0 0 0-.5-.23 1.56 1.56 0 0 0-.5-.09.89.89 0 0 0-.56.32 2.61 2.61 0 0 0-.27.31 2.69 2.69 0 0 1-.27.32 2.51 2.51 0 0 0-2.44-1.6 5.76 5.76 0 0 0-3.46 1.29 9.37 9.37 0 0 0-1.56 1.42 10.37 10.37 0 0 0-1.26 1.8 9.9 9.9 0 0 0-.85 2.07 7.81 7.81 0 0 0-.31 2.18 5.74 5.74 0 0 0 .25 1.83 2.72 2.72 0 0 0 2.73 2.17q2.26 0 4.12-2.78a13.56 13.56 0 0 1-3.5 6.72 6.58 6.58 0 0 1-1.18.88 3.44 3.44 0 0 1-1.19.45c-.38.07-.57.24-.57.53s.16.35.48.55a1.75 1.75 0 0 0 .5.21 2.75 2.75 0 0 0 .91 0 4.05 4.05 0 0 0 1.51-.59q3.27-1.92 5.42-8.47l1.8-5.77a25.14 25.14 0 0 1 1.13-2.85c.1-.22-.05-.43-.43-.67zm-4.4 5.67a15.34 15.34 0 0 1-1 1.71 11.78 11.78 0 0 1-1 1.38 6.36 6.36 0 0 1-1 .93 1.6 1.6 0 0 1-.94.33.79.79 0 0 1-.72-.51 1.78 1.78 0 0 1-.14-.54 6.71 6.71 0 0 1 0-.89A8.28 8.28 0 0 1 263 80a11.49 11.49 0 0 1 .51-1.8 12.55 12.55 0 0 1 .76-1.66 8.34 8.34 0 0 1 .95-1.38 4.41 4.41 0 0 1 1.07-.94 2 2 0 0 1 1.12-.35 2 2 0 0 1 1.26.67 1.4 1.4 0 0 1 .41.7 16.28 16.28 0 0 1-1.48 3.86zm18.4-5.49c-.12.3-.28.7-.45 1.21q-2.32 6.72-3 8.39c-.46 1.1-.86 2-1.21 2.66a20 20 0 0 1-1.2 2 15.44 15.44 0 0 1-1.47 1.86 5.57 5.57 0 0 1-3.34 2 1.57 1.57 0 0 1-1-.17c-.4-.24-.61-.47-.61-.69s.19-.38.56-.46a4 4 0 0 0 1.15-.51 9.36 9.36 0 0 0 1.14-.9 11.91 11.91 0 0 0 2.5-3.35 26 26 0 0 0 1.22-3l.95-2.9c-.23.28-.49.61-.78 1l-.85 1.25a13.58 13.58 0 0 1-1.9 2.06 4.35 4.35 0 0 1-2.58 1.16 1.94 1.94 0 0 1-2-1.3A2.67 2.67 0 0 1 273 83a4.38 4.38 0 0 1 .18-1.16 12.43 12.43 0 0 1 .46-1.33c.18-.47.39-.94.61-1.43l.66-1.47c.84-1.88 1.16-3 .94-3.34a1.57 1.57 0 0 0-.55-.47.3.3 0 0 1-.15-.29.59.59 0 0 1 .18-.41 1.49 1.49 0 0 1 .46-.34 2.71 2.71 0 0 1 1.19-.29 2.62 2.62 0 0 1 .91.13 1.61 1.61 0 0 1 .51.33 1.2 1.2 0 0 1 .4.89 4.16 4.16 0 0 1-.16 1.09 13.66 13.66 0 0 1-.41 1.31c-.17.47-.36 1-.56 1.47-.57 1.32-.94 2.19-1.14 2.61l-.45.94a3.63 3.63 0 0 0-.38 1.18.86.86 0 0 0 .11.49.49.49 0 0 0 .4.14 1.26 1.26 0 0 0 .63-.22 6.58 6.58 0 0 0 .75-.59 11.32 11.32 0 0 0 .84-.85c.29-.32.57-.66.85-1a16.27 16.27 0 0 0 1.61-2.3q2.64-4.86 2.79-5.08a1.1 1.1 0 0 1 .82-.53 2.48 2.48 0 0 1 .71.1 1.41 1.41 0 0 1 .52.26c.27.21.4.48.27.77zm4.26 8.46a2 2 0 0 1 .45 1.31 4.19 4.19 0 0 1-.23 1.42 5.57 5.57 0 0 1-.59 1.2 7 7 0 0 1-.83 1 6.58 6.58 0 0 1-.95.84 4.8 4.8 0 0 1-.95.56 2.21 2.21 0 0 1-.83.2q-.36 0-.36-.27a.85.85 0 0 1 .26-.55l.59-.61a2.56 2.56 0 0 0 .62-3.64c-.12-.19-.21-.36-.29-.51a.74.74 0 0 1 0-.61 1.46 1.46 0 0 1 .64-.67 2 2 0 0 1 1-.28 2.17 2.17 0 0 1 .86.15 1.43 1.43 0 0 1 .61.46zm19.83-13.89a23.83 23.83 0 0 1-1.23 6.18c-1.35 4.59-2.94 7.83-4.76 9.69a4.11 4.11 0 0 1-1.55 1 1.19 1.19 0 0 1-.45.08.94.94 0 0 1-.41-.08.93.93 0 0 1-.3-.2.67.67 0 0 1-.26-.51.45.45 0 0 1 .19-.41q2.1-1.56 4.26-8a44.61 44.61 0 0 0 1.73-6.76 8.63 8.63 0 0 0 .13-1.29 2 2 0 0 0-.92.26l-.92.53c-.25.14-.59 0-1-.33s-.61-.66-.57-.91a.87.87 0 0 1 .41-.61 3.65 3.65 0 0 1 .84-.41 5.13 5.13 0 0 1 1.68-.35 6.19 6.19 0 0 1 1.2.1 3.2 3.2 0 0 1 .94.35 1.8 1.8 0 0 1 .99 1.67zm10.74 11.52a8.45 8.45 0 0 0-.91 3c0 .28.22.41.66.41a1.93 1.93 0 0 0 .93-.22 1.76 1.76 0 0 1 .54-.21c.18 0 .26.08.26.25a2.14 2.14 0 0 1-1.11 1.82 2.54 2.54 0 0 1-1.37.5 3.35 3.35 0 0 1-1-.13 2 2 0 0 1-.72-.43 2.27 2.27 0 0 1-.72-1.81 9.49 9.49 0 0 1 .89-3.54c.43-1 .73-1.63.91-2l.42-.86a3.16 3.16 0 0 0 .38-1.24c0-.3-.23-.45-.68-.45-.25 0-.61.24-1.07.73s-.87.92-1.21 1.32l-1 1.25-2 2.55c-.47.89-.84 1.64-1.11 2.23l-.66 1.42a3.73 3.73 0 0 1-.44.74.67.67 0 0 1-.52.21 1.67 1.67 0 0 1-.62-.12 1.75 1.75 0 0 1-.52-.29 1.13 1.13 0 0 1-.46-.86 2.17 2.17 0 0 1 .27-.72l.46-1c.15-.29.32-.66.51-1.12l.69-1.67A17.52 17.52 0 0 0 313 74.8a.93.93 0 0 0-.37-.83l-.24-.18a.32.32 0 0 1-.13-.29.62.62 0 0 1 .17-.41 1.35 1.35 0 0 1 .43-.34 2.42 2.42 0 0 1 1.11-.29 2.22 2.22 0 0 1 .86.13 1.5 1.5 0 0 1 .51.33 1.22 1.22 0 0 1 .45.89 4.22 4.22 0 0 1-.11.93 9.42 9.42 0 0 1-.3 1c-.11.32-.24.64-.37 1s-.25.58-.35.8l-.25.53c-.06.13-.08.17-.05.12.91-1.25 1.5-2.06 1.79-2.42l.85-1a8.21 8.21 0 0 1 1.48-1.45 3.44 3.44 0 0 1 1.71-.74 3.22 3.22 0 0 1 1.05.16 2.25 2.25 0 0 1 .74.46 2 2 0 0 1 .67 1.58 5.12 5.12 0 0 1-.44 2c-.29.7-.54 1.26-.76 1.7s-.45.78-.62 1.22zm14-5.64a2.9 2.9 0 0 1 .23 1.3 4.25 4.25 0 0 1-.23 1.33 4.56 4.56 0 0 1-.55 1.08c-.5.72-1 1.08-1.51 1.08a1.56 1.56 0 0 1-1.24-.47 1 1 0 0 1-.22-.94.48.48 0 0 1 .22-.28 3.58 3.58 0 0 0 .46-.41 2.83 2.83 0 0 0 .83-1.94c0-.51-.29-.76-.92-.76a3.12 3.12 0 0 0-2.15 1.15 9.29 9.29 0 0 0-2.31 4.28c-.39 1.52-.32 2.62.22 3.32a1.55 1.55 0 0 0 1.29.61 4.37 4.37 0 0 0 2.67-1 3.71 3.71 0 0 0 .63-.62c.16-.22.31-.32.45-.32a.4.4 0 0 1 .35.2.91.91 0 0 1 .14.52 2.08 2.08 0 0 1-.65 1.41 5.54 5.54 0 0 1-4 1.59 4.06 4.06 0 0 1-3.08-1.14 4.3 4.3 0 0 1-1-3.19 8.16 8.16 0 0 1 .34-2.12 9.48 9.48 0 0 1 .83-2 9.07 9.07 0 0 1 1.23-1.74 8.7 8.7 0 0 1 1.55-1.37 6.5 6.5 0 0 1 3.7-1.21 2.72 2.72 0 0 1 2.73 1.64zm5 8.84a2.36 2.36 0 0 1-.6 1.6 1.84 1.84 0 0 1-1.16.7 1.92 1.92 0 0 1-1.64-.52 2.17 2.17 0 0 1-.43-.61 1.89 1.89 0 0 1-.16-.81 1.83 1.83 0 0 1 .18-.82 1.75 1.75 0 0 1 .44-.58 1.59 1.59 0 0 1 1-.39 4.55 4.55 0 0 1 .9.08 2.46 2.46 0 0 1 .71.23 1.21 1.21 0 0 1 .78 1.12zM72.22 70.32c.2.16.25.11.79-.91a6.14 6.14 0 0 1 .91-1.23l.48-.44 1.34-.07c4-.21 4.17-.22 4.17-.39s-.28-.17-1.64-.2a8.82 8.82 0 0 1-1.73-.08 11.21 11.21 0 0 1 2.73-.23c.58 0 .7 0 .84-.24s.21-.25 3.35-.29 3.19 0 3.43-.27.29-.24 2-.17a17.41 17.41 0 0 1 2 .15c.12 0 .27 0 .43-.21s.29-.26.74-.21a6.45 6.45 0 0 0 2.54-.14c.23-.21.38-.2.56.06s.26.19.83.17a2.23 2.23 0 0 0 .82-.14c.09-.08.42-.08 1 0a6 6 0 0 0 1.41 0c.39-.08.6-.08.7 0a1.39 1.39 0 0 0 .62.12c5-.08 6.87 0 7.52.15a2.68 2.68 0 0 0 1.68 0c.21-.09.32-.09.43 0a6.09 6.09 0 0 0 2.58 0c.06-.11.51-.16 1.77-.19a8.4 8.4 0 0 0 1.94-.17c.18-.1.27-.1.37 0a2 2 0 0 0 .87.13c1.12 0 .92-.32-.22-.39a25.72 25.72 0 0 1-2.55-.37 2 2 0 0 0-.66-.06 9.24 9.24 0 0 1-2.44-.37c-.48-.12-1.49-.3-2.24-.4s-1.67-.25-2-.33a18.93 18.93 0 0 0-3.82-.49 47.47 47.47 0 0 1-5.57-.66c-1.52-.23-1.66-.24-1.93-.06a1.62 1.62 0 0 1-.62.18 2 2 0 0 0-.53.09.35.35 0 0 1-.36 0 12.82 12.82 0 0 0-2.19-.25c-1.12-.08-2.24-.18-2.48-.22a11.28 11.28 0 0 0-1.26-.1c-.45 0-1.27-.07-1.82-.11a4 4 0 0 0-1.4.06c-.37.12-.43.11-.84-.18l-.43-.31h-3a26.4 26.4 0 0 1-3.16-.12c-.13-.07-.06-.3.44-1.29.32-.65.67-1.42.77-1.69a2.14 2.14 0 0 1 .28-.59.61.61 0 0 0 .08-.27 5.75 5.75 0 0 1 .37-.93c.2-.43.48-1.06.61-1.4a4.3 4.3 0 0 1 .57-1l.32-.41h1a15.46 15.46 0 0 0 3.79-.6 8.43 8.43 0 0 1 1.21-.25 43.88 43.88 0 0 0 4.59-1c.16 0 .77-.21 1.37-.33a10.13 10.13 0 0 0 1.75-.55 5.67 5.67 0 0 1 1.29-.45 2.63 2.63 0 0 0 .91-.37 4 4 0 0 1 1-.5 2.79 2.79 0 0 0 .82-.34.41.41 0 0 1 .3-.09 1.49 1.49 0 0 0 .55-.17 1.47 1.47 0 0 1 .46-.16 22.62 22.62 0 0 0 2.65-1.18c.54-.28 1-.65.86-.75s-.25 0-.43.11c-1.24.75-2.54 1.26-2.73 1.07a.33.33 0 0 1 .23-.54 1.51 1.51 0 0 0 .53-.21.53.53 0 0 1 .41-.1 1.14 1.14 0 0 0 .63-.26 1.92 1.92 0 0 1 .55-.33 9.76 9.76 0 0 0 1.33-.81c.67-.44 1.58-1 2-1.32l1.53-1c.4-.25.87-.53 1-.61a1 1 0 0 0 .43-.38 2.53 2.53 0 0 1 .74-.64c.35-.22.64-.46.64-.54s.1-.19.21-.23a1.42 1.42 0 0 0 .49-.53 10.81 10.81 0 0 1 1.27-1.41c1.36-1.51 1.46-1.63 1.46-1.75 0-.28-.34 0-1.48 1.15s-1.36 1.33-1.36 1a6.46 6.46 0 0 1 .8-.88c.43-.44.94-1 1.13-1.23s.74-.91 1.23-1.48a5.51 5.51 0 0 0 .88-1.22.69.69 0 0 1 .23-.38 8.81 8.81 0 0 0 .77-.93 4.72 4.72 0 0 1 .69-.79 1.47 1.47 0 0 0 .35-.69 3.18 3.18 0 0 1 .49-1 1.77 1.77 0 0 0 .36-.69 1.4 1.4 0 0 1 .35-.6c.23-.22.27-.35.27-1.08s0-.88.16-1a.49.49 0 0 0 .16-.33.4.4 0 0 1 .11-.27c.07 0 .11-.34.11-.66s0-.6-.11-.6-.11.11-.11.25 0 .2-.13.1a3.4 3.4 0 0 1-.21-1.06 7 7 0 0 0-.18-1.23c-.06-.17-.19-.62-.3-1-.23-.88-.29-1-.56-1.14a2.63 2.63 0 0 1-.91-1.3.77.77 0 0 0-.26-.49 3.87 3.87 0 0 1-.56-.85c-.3-.56-.86-1.14-1.1-1.14a2.58 2.58 0 0 1-.82-.79 2.7 2.7 0 0 0-.6-.79 11.5 11.5 0 0 0-1.75-1.31c-1-.65-1.46-1.09-1.59-1.44a2.45 2.45 0 0 0-1.81-.81 1 1 0 0 1-.7-.16 1.34 1.34 0 0 0-.5-.28 1.25 1.25 0 0 1-.6-.5c-.24-.39-.43-.49-.43-.22s-.3.33-.35.17a5.81 5.81 0 0 0-.79-.48c-.62-.31-.8-.36-1-.26s-.3.05-.63-.12a3.8 3.8 0 0 0-1-.35 3.42 3.42 0 0 1-.74-.21 5 5 0 0 0-1-.21c-.52-.06-1.07-.14-1.23-.18s-.31 0-.31.11.1.17.28.17a1.16 1.16 0 0 1 .47.1 3.33 3.33 0 0 0 1.23.39 1.85 1.85 0 0 1 .72.22.9.9 0 0 0 .47.17 5.34 5.34 0 0 1 1.09.31c.46.18 1.12.4 1.47.5a1.32 1.32 0 0 1 .62.28s.14.12.33.16c.39.09.54.28.23.28-.13 0-.23-.05-.23-.1s-.23-.14-.52-.18a4.08 4.08 0 0 1-.74-.16l-.71-.22c-.27-.06-.79-.22-1.15-.33a7.76 7.76 0 0 0-1.23-.26c-.48-.07-.58 0-.58.09s.14.19.31.23a20.22 20.22 0 0 1 2.7.84.54.54 0 0 0 .25.09 3.49 3.49 0 0 1 .75.27 4 4 0 0 0 .69.27.4.4 0 0 1 .22.16.94.94 0 0 0 .41.23 2.32 2.32 0 0 1 .68.37 8.71 8.71 0 0 0 1.21.68 3.89 3.89 0 0 1 2.13 1.73 4.87 4.87 0 0 0 .93 1.06 1.37 1.37 0 0 1 .46.5 5 5 0 0 0 .9 1c1 .85 1 .89 1.21 1.55a5.23 5.23 0 0 0 .5 1 2.52 2.52 0 0 1 .33.61 5.72 5.72 0 0 0 .27.82 12.55 12.55 0 0 1 .52 1.8 8.72 8.72 0 0 1 .16 2.62 6.65 6.65 0 0 1-.38 2.43 12.28 12.28 0 0 1-1.6 3.06 36.09 36.09 0 0 1-5.83 6.11l-.6.49a10.79 10.79 0 0 1-1.52 1.09.18.18 0 0 0-.14.09c-.15.37-4.54 2.83-6.38 3.58-.42.16-1 .41-1.32.56s-.82.35-1.15.48a3.93 3.93 0 0 0-.7.33 1.41 1.41 0 0 1-.44.14c-.18 0-.6.14-.93.24s-1.22.31-2 .45c-1.31.26-2.46.51-3.88.87a13.41 13.41 0 0 1-1.75.28 9.49 9.49 0 0 0-1.37.19 5.9 5.9 0 0 1-2.08.18c-.19 0-.33-.14-.33-.23a1.43 1.43 0 0 0-.75-.94 5.71 5.71 0 0 1-.7-.49 1.3 1.3 0 0 0-1-.26c-.43 0-.64.05-.65.15a1.42 1.42 0 0 1-.46.46 5.07 5.07 0 0 0-.92 1c-.47.69-.49.72-1.05.79-1 .12-6.76.09-7.3 0-.27-.07-1.38-.24-2.46-.38a20.52 20.52 0 0 1-4.1-.78c-.33-.12-.94-.33-1.37-.46a18.63 18.63 0 0 1-6.38-4 5.16 5.16 0 0 1-.89-1.09 2.3 2.3 0 0 0-.33-.69 1.9 1.9 0 0 1-.33-.72 1.11 1.11 0 0 0-.22-.5 8.28 8.28 0 0 1-.76-2.21.58.58 0 0 0-.22-.39c-.25-.22-.29-.48-.09-.67a3.77 3.77 0 0 0 .15-1.3 17.26 17.26 0 0 1 .43-3.87 1.93 1.93 0 0 0 .11-.94c-.07-.43 0-.47.4-.84s.46-.39.34-.78-.08-.42.08-.63a5.25 5.25 0 0 0 .37-.6 3.59 3.59 0 0 1 .45-.65c.39-.42.36-.07-.05.58s-.43.91-.22.91c0 0 .17-.16.27-.36a2.42 2.42 0 0 1 .42-.62c.13-.16.42-.56.65-.89a10 10 0 0 1 1.15-1.31l2-1.93a10.22 10.22 0 0 1 1.44-1.23 1.93 1.93 0 0 0 .59-.33 2.78 2.78 0 0 1 .53-.33 2.48 2.48 0 0 0 .58-.44 4.29 4.29 0 0 1 .56-.44 1.56 1.56 0 0 0 .44-.32 1.8 1.8 0 0 1 .58-.35 1.55 1.55 0 0 0 .49-.26c.42-.28 1.37-.8 3-1.62.56-.3 1.35-.75 1.75-1A10.89 10.89 0 0 1 74 15.64a.49.49 0 0 0 .35-.1 8.72 8.72 0 0 1 1.87-.6c.18 0 .8-.15 1.36-.27l1.69-.34a29.4 29.4 0 0 1 5.81-.21c3.16.14 4.55.42 6 1.23a2.5 2.5 0 0 0 .68.29c.29 0 .32-.5.07-.86a1.24 1.24 0 0 1-.23-.48A4.72 4.72 0 0 0 91 13a3.9 3.9 0 0 1-.23-.66c-.1-.42-.24-.6-.79-1l-.78-.66c-.13-.15-2.13-1.38-2.2-1.38a5.19 5.19 0 0 1-.56-.24 2.16 2.16 0 0 0-.75-.22 3.11 3.11 0 0 1-.82-.21c-1.4-.55-2.36-.63-5.18-.63a17 17 0 0 0-4.49.39 9 9 0 0 1-2.06.49 1.85 1.85 0 0 0-.66.17 2.48 2.48 0 0 1-.61.16 12.17 12.17 0 0 0-3.34 1.17c-.6.29-1.39.64-1.75.79a41.05 41.05 0 0 0-7.55 4.39 34.71 34.71 0 0 0-7 6.91c-.08.11-.4.6-.71 1.08a33.05 33.05 0 0 0-2.32 4.54 9.39 9.39 0 0 0-.28 1c0 .31-.18 1-.28 1.53a20.57 20.57 0 0 0-.06 5.26 20.9 20.9 0 0 0 2.57 6.34 6.61 6.61 0 0 1 .45.74 10.78 10.78 0 0 0 2.4 2.9 30.25 30.25 0 0 0 3.07 2.2l.54.3a15.83 15.83 0 0 0 2.25 1.19 3 3 0 0 1 .66.23l.76.31.49.21c.42.16 1.16.41 2.08.68l1.31.4a3.85 3.85 0 0 0 1 .19 1.57 1.57 0 0 1 .63.11 10.75 10.75 0 0 0 2.29.39 5.24 5.24 0 0 1 .87.14 6.33 6.33 0 0 0 1 .19 4.45 4.45 0 0 1 1.37.37 3.29 3.29 0 0 0 1.57.33 8.8 8.8 0 0 1 1.24.13c.19.12.08.65-.24 1.21a3.53 3.53 0 0 0-.33.69 30.65 30.65 0 0 1-1.37 3 12.13 12.13 0 0 0-1.14 3c0 .22 0 .4-.09.4s-.16.12-.22.27-.19.29-.87.28h-.9l-1-.07c-.45 0-1.23-.07-1.73-.07a3 3 0 0 1-1.39-.19c-.43-.2-.7-.22-2.64-.21a22.39 22.39 0 0 0-2.61.12c-1.42.34-1.45.34-2 .15a3.67 3.67 0 0 0-2.4.05c-.85.44-.94.57-1 1.33a8.68 8.68 0 0 0 .4 2.81c.15.25.4.28.4.06a2.07 2.07 0 0 0-.16-.54c-.26-.62-.22-.86.14-.82s.3.07.3.55a1 1 0 0 0 .29.82 1.65 1.65 0 0 1 .35.7 1.31 1.31 0 0 0 .23.54 1.37 1.37 0 0 1 .29.51 3.58 3.58 0 0 0 .43.85c.32.47.42 1 .21 1.1s.25.94 1.17 1.4a3 3 0 0 1 .68.45.51.51 0 0 0 .34.17 3.55 3.55 0 0 0 1.73-1.1 5.57 5.57 0 0 1 1.44-1.38 2.08 2.08 0 0 1 .66-.31 7.59 7.59 0 0 0 1.42-.5 4.35 4.35 0 0 1 2.41-.5c1 0 1.2 0 1.2.17a.39.39 0 0 1-.17.25 2.72 2.72 0 0 0-.59 1.43 3.94 3.94 0 0 1-.1.66c-.07.22-.17.63-.24.94a5.41 5.41 0 0 1-.63 1.25 2.41 2.41 0 0 0-.54 1.35c0 .4-.11.67-.2.7a.36.36 0 0 0-.15.32 4.8 4.8 0 0 1-.29 1 9 9 0 0 0-.37 1.35c0 .33-.3 1.39-.55 2.35s-.5 2-.54 2.41-.15.92-.22 1.22c-.13.52-.13.6 0 .78s.17.27 0 1a13.51 13.51 0 0 0-.27 2.82c.1.17.37-.27.6-1a6.28 6.28 0 0 1 .43-1 4.37 4.37 0 0 0 .39-1.08 5.94 5.94 0 0 1 .48-1.31 3.68 3.68 0 0 0 .38-1.19 4.26 4.26 0 0 1 .16-.87c.06-.15.21-.63.34-1.08s.31-1 .39-1.2.19-.55.25-.75c.12-.53.36-.58.33-.08 0 .71.21.69.31 0 0-.25.1-.45.15-.45a4.07 4.07 0 0 0 .52-1.48 2.48 2.48 0 0 1 .34-.73 1 1 0 0 0 .22-.43 10.11 10.11 0 0 1 .61-1.4c.34-.69.71-1.48.82-1.75s.26-.59.32-.71a3.81 3.81 0 0 0 .15-.44 2.72 2.72 0 0 1 .33-.55c.21-.26.3-.29.43-.18zm-16-2.23c.39.2.46.2.54 0s-.46-.93-.72-.93c-.47.01-.35.65.15.93zm24.13-.67c.21.09.35 0 .39-.18s0-.18-.25-.18-.43.26-.17.36zm3.53-.42c-.54-.06-.64-.05-.64.09s.16.21.36.28c.54.15.85.14.92 0s.08-.27-.64-.37zm1.41.3c.14.15.69.08.69-.09s-.12-.16-.38-.16-.48.1-.31.26zm14.89-55.9c0-.14-.49-.31-.61-.19s0 .14.14.23.4.15.47-.04z"/></svg>
