<svg xmlns="http://www.w3.org/2000/svg" fill="none" viewBox="0 0 128 128"><title>Icon: Massage Therapy</title><path fill="#C6E7DF" d="M109.696 25.03c-4.887-6.099-18.916-5.056-32.628-4.803-13.687.247-27.062-.316-38.27 4.291-11.202 4.628-20.263 14.434-24.248 24.938-3.98 10.524-2.911 21.755.53 31.937 3.447 10.202 9.216 19.369 18.01 26.169 8.793 6.8 20.568 11.267 32.125 10.309 11.562-.937 22.852-7.306 30.346-14.845 7.49-7.56 11.154-16.306 12.27-24.066 1.136-7.788-.296-14.563 1.113-24.58 1.409-10.018 5.664-23.258.752-29.35z" opacity=".5"/><path fill="#50D3B2" fill-rule="evenodd" d="M64 123c32.585 0 59-26.415 59-59S96.585 5 64 5 5 31.415 5 64s26.415 59 59 59zm0 5c35.346 0 64-28.654 64-64 0-35.346-28.654-64-64-64C28.654 0 0 28.654 0 64c0 35.346 28.654 64 64 64z" clip-rule="evenodd"/><path fill="#50D3B2" fill-rule="evenodd" d="M64.5 22.5a4 4 0 0 0-4 4V57a2.5 2.5 0 0 1-5 0V34.5a4 4 0 0 0-8 0v34a2.5 2.5 0 0 1-4.1 1.92c-1.893-1.576-6.313-4.92-12.4-4.92-3.02 0-4.89.855-5.969 1.81-1.088.963-1.531 2.156-1.531 3.19 0 1.444.96 2.927 3.788 5.011 1.356 1 2.965 2.014 4.801 3.16l.288.18c1.733 1.082 3.631 2.268 5.546 3.594C44.787 87.196 51 95.363 51 104a2.5 2.5 0 1 1-5 0c0-6.363-4.787-13.196-10.923-17.445-1.814-1.256-3.621-2.384-5.372-3.477l-.265-.166c-1.806-1.128-3.581-2.243-5.119-3.376-2.959-2.182-5.821-4.98-5.821-9.036 0-2.466 1.057-5.023 3.219-6.935 2.17-1.92 5.3-3.065 9.281-3.065 4.76 0 8.676 1.565 11.5 3.194V34.5a9 9 0 0 1 13-8.064 9 9 0 0 1 17.548-2.76A9 9 0 0 1 86.5 31.5v.752A8.5 8.5 0 0 1 98.5 40v41c0 6.222-2.804 12.553-7.155 17.312C86.985 103.08 80.853 106.5 74 106.5H63a2.5 2.5 0 1 1 0-5h11c5.147 0 10.016-2.581 13.655-6.562C91.305 90.947 93.5 85.778 93.5 81V40a3.5 3.5 0 1 0-7 0v17a2.5 2.5 0 0 1-5 0V31.5a4 4 0 0 0-8 0V57a2.5 2.5 0 0 1-5 0V26.5a4 4 0 0 0-4-4z" clip-rule="evenodd"/></svg>
