<svg xmlns="http://www.w3.org/2000/svg" fill="none" viewBox="0 0 128 128"><title>Icon: Gynecology</title><path fill="#C6E7DF" d="M93.745 15.701c7.223 2.925 9.846 15.847 13.156 28.29 3.311 12.419 7.331 24.358 5.74 35.602-1.612 11.243-8.835 21.816-18.058 27.977-9.244 6.162-20.487 7.936-31.322 7.313-10.857-.624-21.305-3.597-30.226-9.878-8.922-6.281-16.338-15.823-18.402-26.491-2.085-10.669 1.204-22.416 6.621-31.023 5.44-8.607 13.028-14.049 20.316-16.95 7.309-2.925 14.296-3.284 23.712-7s21.24-10.789 28.463-7.84z" opacity=".5"/><path fill="#50D3B2" fill-rule="evenodd" d="M66 92.607c9.516-.764 17-8.728 17-18.44 0-10.218-8.283-18.5-18.5-18.5S46 63.949 46 74.167c0 9.37 6.965 17.112 16 18.332V104h-7a2 2 0 1 0 0 4h7v7a2 2 0 1 0 4 0v-7h7a2 2 0 1 0 0-4h-7V92.607zm13-18.44c0 8.008-6.492 14.5-14.5 14.5S50 82.175 50 74.167s6.492-14.5 14.5-14.5S79 66.159 79 74.167z" clip-rule="evenodd"/><path fill="#50D3B2" fill-rule="evenodd" d="M64 128c35.346 0 64-28.654 64-64 0-35.346-28.654-64-64-64C28.654 0 0 28.654 0 64c0 35.346 28.654 64 64 64zm0-5c12.46 0 24.017-3.862 33.541-10.455.065-.349.204-.689.424-.997v-.001l.013-.018.029-.041.038-.057c.062-.091.159-.235.284-.429.25-.389.618-.979 1.063-1.758a58.033 58.033 0 0 0 3.293-6.814c2.409-5.9 4.815-14.326 4.815-24.43 0-9.908-3.288-17.608-6.724-24.295a271.927 271.927 0 0 0-1.717-3.268c-1.14-2.147-2.254-4.246-3.147-6.206C94.55 41.238 93.5 38.161 93.5 35c0-5.631 1.337-10.68 2.65-14.292a44.95 44.95 0 0 1 2.057-4.785C88.558 9.045 76.752 5 64 5 51.248 5 39.442 9.045 29.793 15.923a44.95 44.95 0 0 1 2.056 4.785C33.163 24.32 34.5 29.368 34.5 35c0 3.16-1.05 6.238-2.412 9.231-.893 1.96-2.007 4.059-3.147 6.205a271.974 271.974 0 0 0-1.717 3.269C23.788 60.392 20.5 68.092 20.5 78c0 10.104 2.406 18.53 4.815 24.43a57.976 57.976 0 0 0 3.293 6.814c.445.779.812 1.369 1.063 1.758.125.194.222.338.284.429l.038.057.029.041.012.018.001.001c.22.308.36.648.424.997C39.983 119.138 51.54 123 64 123zm59-59c0 15.366-5.874 29.36-15.499 39.859C110.029 97.534 112.5 88.635 112.5 78c0-11.092-3.712-19.642-7.276-26.58a292.212 292.212 0 0 0-1.85-3.522c-1.09-2.05-2.079-3.91-2.911-5.739C99.201 39.387 98.5 37.09 98.5 35c0-4.869 1.163-9.32 2.349-12.583a40.656 40.656 0 0 1 1.388-3.35C114.942 29.887 123 46.002 123 64zM5 64c0-17.997 8.058-34.112 20.763-44.934.403.86.895 1.995 1.387 3.35C28.338 25.68 29.5 30.132 29.5 35c0 2.09-.7 4.387-1.963 7.16-.832 1.827-1.82 3.688-2.91 5.737-.59 1.11-1.21 2.277-1.85 3.523C19.211 58.358 15.5 66.908 15.5 78c0 10.635 2.47 19.534 5 25.859C10.873 93.359 5 79.366 5 64z" clip-rule="evenodd"/></svg>
