<svg xmlns="http://www.w3.org/2000/svg" fill="none" viewBox="0 0 60 60"><title>Icon: Forms and Information</title><path fill="#C6E7DF" d="M16.252 54.143c-3.283-1.443-4.475-7.818-5.98-13.956-1.505-6.126-3.332-12.016-2.609-17.563.733-5.547 4.016-10.763 8.208-13.803 4.202-3.04 9.313-3.914 14.238-3.607 4.934.308 9.683 1.774 13.739 4.873 4.055 3.099 7.426 7.806 8.364 13.069.948 5.263-.547 11.058-3.01 15.304-2.472 4.246-5.921 6.931-9.234 8.362-3.322 1.443-6.498 1.62-10.778 3.454-4.28 1.833-9.654 5.322-12.938 3.867z" opacity=".5"/><path fill="#50D3B2" d="M19.125 21a1.875 1.875 0 100 3.75h15.75a1.875 1.875 0 000-3.75h-15.75zM18.375 27.75a1.125 1.125 0 100 2.25h23.25a1.125 1.125 0 000-2.25h-23.25zM17.25 34.125c0-.621.504-1.125 1.125-1.125h23.25a1.125 1.125 0 110 2.25h-23.25a1.125 1.125 0 01-1.125-1.125zM18.375 38.25a1.125 1.125 0 100 2.25h12.75a1.125 1.125 0 000-2.25h-12.75z"/><path fill="#50D3B2" fill-rule="evenodd" d="M48.75 53.42C55.608 47.922 60 39.474 60 30 60 13.431 46.569 0 30 0 13.431 0 0 13.431 0 30c0 9.474 4.392 17.922 11.25 23.42a30.088 30.088 0 0 0 3 2.118A29.86 29.86 0 0 0 30 60a29.86 29.86 0 0 0 18.75-6.58zm-3-1.487A26.877 26.877 0 0 1 30 57a26.877 26.877 0 0 1-15.75-5.067V17.5a1 1 0 0 1 1-1h29.5a1 1 0 0 1 1 1v34.433zm3-2.505V17.5a4 4 0 0 0-4-4h-29.5a4 4 0 0 0-4 4v31.928C6.163 44.518 3 37.628 3 30 3 15.088 15.088 3 30 3s27 12.088 27 27c0 7.628-3.163 14.518-8.25 19.428z" clip-rule="evenodd"/></svg>