<svg xmlns="http://www.w3.org/2000/svg" fill="none" viewBox="0 0 60 60"><title>Icon: Patient Portal</title><path fill="#C6E7DF" d="M16.252 54.143c-3.283-1.443-4.475-7.818-5.98-13.956-1.505-6.126-3.332-12.016-2.609-17.563.733-5.547 4.016-10.763 8.208-13.803 4.202-3.04 9.313-3.914 14.238-3.607 4.934.308 9.683 1.774 13.739 4.873 4.055 3.099 7.426 7.806 8.364 13.069.948 5.263-.547 11.058-3.01 15.304-2.472 4.246-5.921 6.931-9.234 8.362-3.322 1.443-6.498 1.62-10.778 3.454-4.28 1.833-9.654 5.322-12.938 3.867z" opacity=".5"/><path fill="#50D3B2" fill-rule="evenodd" d="M47.22 50.797A26.89 26.89 0 0 1 30 57a26.89 26.89 0 0 1-17.22-6.203 10.257 10.257 0 0 1 8.553-8.427 5.896 5.896 0 0 0 1.991-.685c1.194 2.351 3.797 3.877 6.676 3.877 2.88 0 5.482-1.526 6.675-3.877a5.895 5.895 0 0 0 1.991.685 10.257 10.257 0 0 1 8.554 8.427zm2.504-2.359a13.258 13.258 0 0 0-10.602-9.033 2.909 2.909 0 0 1-2.466-2.875v-3.515c1.68-1.602 2.718-3.818 2.718-6.296v-6.094c-2.681 0-3.87-2.455-4.637-4.556a29.21 29.21 0 0 1-.112-.314c-.071-.201-.139-.398-.204-.587-.398-1.16-.702-2.043-1.14-2.043-.486 0-.99 1.082-1.615 2.424l-.01.02-.156.336c-1 2.135-2.312 4.72-4.313 4.72h-6.562v6.094c0 2.478 1.038 4.694 2.718 6.296v3.515a2.909 2.909 0 0 1-2.466 2.875 13.258 13.258 0 0 0-10.601 9.033A26.906 26.906 0 0 1 3 30C3 15.088 15.088 3 30 3s27 12.088 27 27a26.906 26.906 0 0 1-7.276 18.438zM9.553 51.953C3.675 46.476 0 38.667 0 30 0 13.431 13.431 0 30 0c16.569 0 30 13.431 30 30 0 16.05-12.605 29.157-28.456 29.961a30.62 30.62 0 0 1-3.439-.02 29.855 29.855 0 0 1-8.817-1.91 29.935 29.935 0 0 1-7.056-3.856 30.15 30.15 0 0 1-2.68-2.222zm8.822-30.39c0-6.375 5.208-11.625 11.625-11.625 6.416 0 11.624 5.25 11.624 11.624v17.344a1.5 1.5 0 1 0 3 0V21.563c0-8.025-6.544-14.625-14.625-14.625-8.08 0-14.624 6.6-14.624 14.625v17.343a1.5 1.5 0 1 0 3 0V21.563zM30 32.624c-3.683 0-6.375-2.737-6.375-5.906v-3.094h3.562c2.057 0 3.531-1.152 4.443-2.168.535-.595.99-1.267 1.375-1.921.698 1.244 1.76 2.618 3.37 3.414v3.769c0 3.17-2.693 5.906-6.375 5.906zm3.656 2.306a9.868 9.868 0 0 1-3.656.694 9.868 9.868 0 0 1-3.657-.694v1.6a5.89 5.89 0 0 1-.758 2.895 1.5 1.5 0 0 1 .216.422c.48 1.473 2.097 2.715 4.199 2.715s3.72-1.242 4.199-2.715a1.5 1.5 0 0 1 .215-.422 5.89 5.89 0 0 1-.758-2.896v-1.599z" clip-rule="evenodd"/></svg>