<svg xmlns="http://www.w3.org/2000/svg" fill="none" viewBox="0 0 128 128"><title>Icon: Obstetrics</title><path fill="#C6E7DF" d="M93.328 115.271c7.004-3.042 9.548-16.481 12.758-29.421 3.21-12.916 7.109-25.332 5.566-37.026-1.563-11.694-8.568-22.69-17.51-29.097-8.965-6.408-19.867-8.253-30.374-7.605-10.527.649-20.659 3.74-29.31 10.273-8.651 6.532-15.843 16.455-17.844 27.55-2.022 11.096 1.167 23.313 6.42 32.264 5.274 8.951 12.633 14.611 19.7 17.628 7.088 3.042 13.863 3.416 22.994 7.281 9.13 3.864 20.596 11.219 27.6 8.153z" opacity=".5"/><path fill="#50D3B2" d="M36.608 70.2a4.307 4.307 0 0 1-.095-.046C26.257 67.077 23.59 58.462 22.564 51.282c-1.436-8.205.82-14.77 6.36-19.077 5.743-4.513 12.102-6.359 18.666-5.333 8.615 1.23 15.59 9.23 15.795 18.051 0 1.23.41 2.256 1.026 3.077 3.281 4.513 2.871 8.615-1.436 12.308l-.82.82-.309.256c-1.095.91-2.018 1.677-2.769 2.616.274.547.73 1.094 1.185 1.641.228.273.456.547.661.82 1.436 1.642 2.667 2.872 3.693 3.693 2.461 2.051 7.18-.205 8.41-1.026.82-.41 1.64-1.025 2.461-1.846.42-.28.746-.656 1.04-.998.136-.158.266-.308.396-.438 3.282-3.897 6.36-4.718 11.077-2.872 1.617.588 3.129 1.387 4.61 2.17.587.31 1.168.616 1.75.907l1.23 1.436c1.026.41 1.846.205 3.897-.615 1.231-.616 2.257-1.026 3.693-1.231 1.436-.205 2.666.615 2.872 2.051.205 1.436-.616 2.667-2.052 2.872-.82.205-1.641.41-2.461.82l-.152.061c-2.04.818-4.852 1.946-8.053.145l-1.231-.616c-.7-.35-1.376-.7-2.036-1.041-1.275-.66-2.491-1.29-3.708-1.83-2.461-.821-3.282-.616-5.333 1.64-.41.616-1.026 1.231-1.846 1.847-.48.32-.93.672-1.373 1.018-.69.54-1.364 1.068-2.115 1.443-5.538 3.282-10.666 3.487-14.153.616-1.231-1.026-2.462-2.257-4.103-4.103-.179-.215-.364-.43-.552-.647-.885-1.026-1.812-2.101-2.32-3.456-.615-1.64-.41-3.692.82-5.128a27.998 27.998 0 0 1 3.488-3.487l.82-.82c2.257-2.052 2.257-3.283.616-5.334-1.436-1.64-2.051-3.692-2.051-6.154-.206-6.359-5.334-12.307-11.487-13.128-5.334-.82-10.257.616-14.77 4.308-4.102 3.077-5.538 7.59-4.513 14.154 1.231 8.615 4.308 12.923 10.462 14.769 1.846.615 4.308 2.256 5.128 6.77.103.717.205 1.486.308 2.256.102.769.205 1.538.308 2.256l.615 3.692c1.026 5.129 2.872 8.616 5.949 11.077 7.59 5.744 21.743 6.154 29.538.616 4.308-3.077 5.538-6.975 3.897-11.693-.41-1.436.206-2.871 1.642-3.282 1.435-.41 2.871.205 3.282 1.641 2.461 6.77.205 13.129-5.95 17.436-4.512 3.282-10.87 4.923-17.025 4.923-6.769 0-13.538-1.846-18.461-5.743-4.308-3.282-6.77-7.795-7.795-14.36-.103-.615-.205-1.281-.308-1.948-.102-.667-.205-1.333-.307-1.949l-.616-4.307c-.38-2.283-1.114-2.626-1.546-2.827z"/><path fill="#50D3B2" fill-rule="evenodd" d="M128 64c0 35.282-28.718 64-64 64S0 99.282 0 64 28.718 0 64 0s64 28.718 64 64zM97.846 16A57.925 57.925 0 0 0 64 5.128C31.59 5.128 5.128 31.59 5.128 64S31.59 122.872 64 122.872 122.872 96.41 122.872 64c0-17.23-7.59-32.82-19.898-43.282-.205 0-.359.051-.512.102a1.52 1.52 0 0 1-.513.103c-7.59.616-14.77 1.436-19.693 7.18-4.701 5.52-4.514 12.465-4.31 20.025l.003.077c0 .811.012 1.635.025 2.468.038 2.538.078 5.163-.23 7.788 0 1.231-1.231 2.257-2.462 2.257h-.205c-1.436-.205-2.462-1.436-2.257-2.872.308-2.304.27-4.724.231-7.173-.012-.82-.025-1.644-.025-2.468v-.82c-.007-7.944-.014-16.028 5.538-22.77 5.333-6.153 12.308-7.794 19.282-8.615z" clip-rule="evenodd"/></svg>
