<svg xmlns="http://www.w3.org/2000/svg" fill="none" viewBox="0 0 60 60"><title>Icon: Health Plans</title><path fill="#C6E7DF" d="M47.94 51.347c2.873-2.29 2.562-8.641 2.612-14.857.053-6.205.475-12.278-1.514-17.306-2-5.025-6.412-9.015-11.21-10.695-4.806-1.677-10-1.056-14.739.629-4.748 1.687-9.047 4.415-12.29 8.486C7.555 21.675 5.35 27.07 5.653 32.3c.291 5.233 3.092 10.276 6.479 13.584 3.397 3.305 7.386 4.86 10.953 5.273 3.578.42 6.72-.312 11.325.205 4.604.518 10.66 2.287 13.53-.015z" opacity=".5"/><path fill="#50D3B2" fill-rule="evenodd" d="M35.625 24.375H46.75a2 2 0 0 1 2 2v7.25a2 2 0 0 1-2 2H35.625V46.75a2 2 0 0 1-2 2h-7.25a2 2 0 0 1-2-2V35.625H13.25a2 2 0 0 1-2-2v-7.25a2 2 0 0 1 2-2h11.125V13.25a2 2 0 0 1 2-2h7.25a2 2 0 0 1 2 2v11.125zm-3 3H45.75v5.25H32.625V45.75h-5.25V32.625H14.25v-5.25h13.125V14.25h5.25v13.125z" clip-rule="evenodd"/><path fill="#50D3B2" fill-rule="evenodd" d="M60 30c0 16.569-13.431 30-30 30C13.431 60 0 46.569 0 30 0 13.431 13.431 0 30 0c16.569 0 30 13.431 30 30zm-3 0c0 14.912-12.088 27-27 27S3 44.912 3 30 15.088 3 30 3s27 12.088 27 27z" clip-rule="evenodd"/></svg>