<svg xmlns="http://www.w3.org/2000/svg" fill="none" viewBox="0 0 60 60"><title>Icon: Pay My Bill</title><path fill="#C6E7DF" d="M16.252 54.143c-3.283-1.443-4.475-7.818-5.98-13.956-1.505-6.126-3.332-12.016-2.609-17.563.733-5.547 4.016-10.763 8.208-13.802 4.202-3.04 9.313-3.915 14.238-3.608 4.934.308 9.683 1.774 13.739 4.873 4.055 3.099 7.426 7.806 8.364 13.069.948 5.263-.547 11.058-3.01 15.304-2.472 4.246-5.921 6.931-9.234 8.362-3.322 1.443-6.498 1.62-10.778 3.454-4.28 1.833-9.654 5.322-12.938 3.867z" opacity=".5"/><path fill="#50D3B2" d="M34.688 42.646c0 .98-.327 1.858-.98 2.633-.652.756-1.605 1.247-2.858 1.47l-.206 3.407H28.66l-.284-.284.206-3.045a10.924 10.924 0 01-3.27-.748l.437-3.046.335-.232a6.99 6.99 0 001.906 1.239c.704.31 1.33.464 1.88.464.481 0 .867-.12 1.16-.361.308-.241.463-.542.463-.903 0-.379-.18-.68-.541-.904-.343-.24-.884-.507-1.623-.8a20.702 20.702 0 01-1.906-.903 4.342 4.342 0 01-1.262-1.187c-.343-.5-.515-1.118-.515-1.858 0-.998.335-1.859 1.005-2.581.687-.74 1.622-1.222 2.807-1.445L29.665 30h1.958l.309.31-.206 3.174a9.152 9.152 0 012.652.594l-.489 2.89-.464.13c-.549-.414-1.081-.723-1.596-.93-.515-.206-.988-.31-1.417-.31-.48 0-.858.12-1.133.362-.275.224-.412.499-.412.826 0 .361.171.662.515.903.343.224.884.49 1.622.8.773.327 1.4.628 1.88.903a3.69 3.69 0 011.263 1.162c.36.481.54 1.092.54 1.832zM18.75 19.688a1.875 1.875 0 000 3.75h15a1.875 1.875 0 000-3.75h-15z"/><path fill="#50D3B2" fill-rule="evenodd" d="M48.75 53.42C55.608 47.922 60 39.474 60 30 60 13.431 46.569 0 30 0 13.431 0 0 13.431 0 30c0 9.474 4.392 17.922 11.25 23.42A30.088 30.088 0 0 0 16.908 57 29.88 29.88 0 0 0 30 60a29.88 29.88 0 0 0 18.75-6.58zm-3-1.487A26.877 26.877 0 0 1 30 57a26.877 26.877 0 0 1-15.75-5.067v-33.87a1 1 0 0 1 1-1h29.5a1 1 0 0 1 1 1v33.87zm3-2.505V18.063a4 4 0 0 0-4-4h-29.5a4 4 0 0 0-4 4v31.365C6.163 44.518 3 37.628 3 30 3 15.088 15.088 3 30 3s27 12.088 27 27c0 7.628-3.163 14.518-8.25 19.428z" clip-rule="evenodd"/></svg>