<?xml version="1.0" standalone="no"?>
<!DOCTYPE svg PUBLIC "-//W3C//DTD SVG 20010904//EN"
 "http://www.w3.org/TR/2001/REC-SVG-20010904/DTD/svg10.dtd">
<svg version="1.0" xmlns="http://www.w3.org/2000/svg"
 width="700.000000pt" height="700.000000pt" viewBox="0 0 700.000000 700.000000"
 preserveAspectRatio="xMidYMid meet">
<metadata>
Created by potrace 1.11, written by Peter Selinger 2001-2013
</metadata>
<g transform="translate(0.000000,700.000000) scale(0.100000,-0.100000)"
fill="#000000" stroke="none">
<path d="M2840 6325 c-320 -65 -414 -94 -615 -187 -219 -102 -320 -156 -462
-249 -279 -184 -538 -438 -676 -664 -169 -279 -211 -428 -205 -724 3 -161 5
-169 41 -274 67 -196 197 -424 300 -528 118 -119 332 -254 524 -330 133 -52
328 -115 383 -122 19 -3 76 -12 125 -21 50 -9 122 -21 160 -27 39 -6 104 -22
145 -35 42 -13 92 -24 111 -24 54 0 100 -11 105 -25 3 -7 -11 -47 -30 -89 -20
-43 -36 -79 -36 -81 0 -2 -31 -71 -69 -152 -38 -81 -75 -172 -82 -201 -24 -95
-24 -95 -228 -87 -101 4 -197 13 -225 21 -61 17 -245 19 -353 2 -84 -13 -114
-13 -209 -3 -68 8 -116 -3 -158 -36 -24 -19 -26 -26 -25 -102 1 -93 17 -168
38 -175 11 -4 12 1 7 19 -20 70 -19 79 3 79 16 0 21 -6 21 -26 0 -14 11 -47
24 -73 92 -175 116 -230 110 -258 -5 -25 0 -34 34 -64 22 -19 57 -44 78 -57
33 -21 40 -22 68 -10 17 7 70 49 117 94 47 44 99 84 115 88 15 4 67 23 116 42
74 29 100 34 168 34 44 0 80 -4 80 -9 0 -6 -9 -25 -20 -44 -11 -19 -25 -60
-31 -93 -15 -82 -35 -137 -69 -190 -16 -25 -32 -64 -35 -87 -4 -23 -10 -46
-14 -52 -13 -18 -50 -155 -95 -350 -59 -260 -67 -304 -56 -325 6 -10 4 -45 -5
-96 -17 -94 -20 -183 -5 -168 12 12 100 224 100 242 0 7 9 31 20 53 12 22 26
66 31 97 16 85 90 306 99 296 5 -5 10 -20 12 -34 4 -24 5 -24 12 5 5 17 17 48
27 71 10 22 19 47 19 54 0 8 31 82 69 165 39 82 83 180 99 216 30 67 44 83 71
84 8 0 30 26 48 57 18 31 48 72 66 91 l32 34 120 7 c203 11 275 18 275 27 0 5
-39 9 -87 10 -120 1 -159 13 -74 22 35 4 87 7 116 7 33 0 57 5 64 14 9 11 64
15 239 21 181 6 230 10 244 22 15 13 40 14 161 8 121 -6 145 -5 155 8 10 12
27 14 72 10 33 -3 87 0 120 6 33 7 65 9 72 5 6 -4 198 -9 427 -11 229 -2 445
-7 481 -12 80 -11 267 -7 460 9 80 6 179 11 220 11 49 -1 70 2 60 8 -15 9 -58
15 -309 46 -68 9 -127 18 -131 20 -7 4 -113 23 -420 75 -30 5 -120 14 -198 20
-141 10 -179 15 -376 45 -90 13 -105 13 -154 -1 -47 -14 -71 -15 -161 -5 -252
26 -354 33 -482 35 -109 2 -142 6 -163 19 -22 15 -55 17 -233 17 -114 0 -213
4 -220 8 -9 6 4 43 46 137 33 72 76 171 96 220 72 174 83 185 188 185 45 0
111 7 147 15 36 8 115 24 175 36 188 36 512 117 575 144 32 14 66 25 73 25 8
0 36 12 63 26 27 15 108 48 180 74 136 50 246 101 277 128 38 33 13 29 -70
-14 -84 -43 -126 -53 -137 -35 -8 13 13 27 69 46 58 19 161 80 370 218 200
132 247 172 405 347 97 108 114 130 106 138 -4 3 -45 -32 -91 -78 -90 -90
-133 -105 -48 -17 65 67 208 238 224 269 6 12 40 57 73 98 34 41 82 116 106
165 24 50 52 101 62 114 12 16 18 41 18 75 0 32 8 69 20 94 21 43 27 102 10
102 -5 0 -10 -5 -10 -12 0 -34 -13 10 -21 74 -16 117 -47 209 -81 242 -17 16
-38 45 -47 65 -31 68 -110 176 -146 199 -19 12 -47 39 -63 60 -33 47 -77 85
-160 141 -35 24 -82 63 -105 88 -46 50 -90 73 -137 73 -36 0 -113 42 -135 74
-13 17 -17 19 -25 7 -7 -12 -19 -9 -73 18 -36 18 -70 30 -76 27 -5 -4 -45 6
-88 20 -71 24 -203 53 -245 54 -37 0 -15 -16 45 -33 174 -52 376 -120 407
-138 38 -22 32 -21 -80 10 -174 48 -225 61 -248 61 -21 0 -22 -2 -12 -15 7 -8
19 -15 28 -15 33 0 261 -84 332 -123 41 -22 108 -57 148 -78 88 -45 97 -52
134 -104 16 -22 77 -92 136 -155 86 -92 116 -132 149 -200 73 -151 95 -237
101 -388 4 -122 2 -139 -22 -215 -46 -148 -134 -275 -330 -475 -270 -276 -502
-430 -911 -604 -152 -65 -207 -81 -426 -128 -325 -70 -544 -106 -582 -96 -15
3 -29 18 -37 36 -17 42 -112 100 -163 100 -34 0 -46 -7 -91 -54 -28 -29 -63
-68 -77 -85 l-27 -31 -268 0 c-235 0 -289 3 -443 26 -240 34 -381 74 -526 146
-167 83 -350 235 -397 330 -49 99 -84 183 -98 233 -7 28 -20 58 -28 67 -11 13
-12 24 -4 50 6 18 13 85 16 148 4 63 13 144 21 180 8 36 14 81 15 101 0 25 8
43 25 59 17 16 25 34 25 57 0 36 70 158 77 136 3 -7 -5 -29 -17 -48 -12 -19
-20 -43 -18 -52 3 -15 6 -14 18 7 57 106 307 367 418 437 31 20 89 59 127 88
39 28 126 82 195 120 69 37 168 91 220 120 154 85 178 96 279 121 53 14 114
31 136 39 22 8 108 29 190 46 121 25 184 32 325 36 285 9 473 -15 608 -78 85
-40 101 -28 63 48 -10 21 -33 73 -52 116 -36 85 -77 127 -194 203 -78 50 -137
75 -260 110 -95 27 -111 29 -320 31 -151 1 -240 -2 -285 -12z"/>
<path d="M4510 6110 c0 -13 28 -25 38 -16 3 4 0 11 -8 16 -20 13 -30 12 -30 0z"/>
<path d="M3135 2139 c-4 -6 -4 -13 -1 -16 8 -8 36 5 36 17 0 13 -27 13 -35 -1z"/>
<path d="M3350 2141 c0 -12 26 -21 61 -21 31 0 39 14 13 24 -24 9 -74 7 -74
-3z"/>
<path d="M3495 2141 c-3 -5 -1 -12 4 -15 12 -8 41 3 41 15 0 12 -37 12 -45 0z"/>
<path d="M1397 2126 c-7 -18 17 -52 43 -59 29 -7 32 5 10 41 -21 34 -44 42
-53 18z"/>
</g>
</svg>
